<!DOCTYPE svg PUBLIC "-//W3C//DTD SVG 20010904//EN" "http://www.w3.org/TR/2001/REC-SVG-20010904/DTD/svg10.dtd">
<svg version="1.0" xmlns="http://www.w3.org/2000/svg" width="1200px" height="284px" viewBox="0 0 12000 2840" preserveAspectRatio="xMidYMid meet">
<g id="layer101" fill="#03070d" stroke="none">
 <path d="M450 1415 l0 -1215 648 0 c720 0 729 1 852 66 123 64 224 185 272 322 22 65 23 76 23 437 l0 370 -36 75 c-83 174 -249 294 -674 485 -22 10 -91 42 -153 71 -62 30 -115 54 -117 54 -4 0 -233 108 -248 117 -4 2 -6 -237 -5 -532 l3 -535 118 -55 c65 -29 127 -57 137 -60 20 -6 20 0 20 318 0 178 3 326 6 330 3 3 21 -2 40 -10 l34 -17 0 -413 0 -414 104 -49 c102 -48 175 -80 182 -80 2 0 4 182 4 405 0 223 2 405 5 405 2 0 43 -19 91 -42 128 -63 124 -48 124 -424 0 -287 -1 -310 -20 -348 -22 -47 -67 -80 -137 -104 -41 -13 -114 -17 -475 -20 l-428 -3 -2 957 -3 958 -45 21 c-108 52 -179 84 -230 106 -30 12 -59 26 -64 31 -6 4 -14 8 -18 8 -4 0 -8 -547 -8 -1215z"/>
 <path d="M3135 1838 c-3 -18 -5 -221 -3 -451 3 -358 5 -419 18 -428 22 -14 804 -6 851 9 60 20 101 54 128 107 24 46 26 58 26 195 0 137 -2 149 -26 195 -31 62 -94 106 -164 116 -27 4 -181 8 -342 8 l-292 1 -3 138 -3 137 -92 3 -92 3 -6 -33z m788 -439 c34 -26 51 -89 42 -153 -15 -115 -19 -116 -360 -116 l-275 0 0 145 0 145 284 0 c271 0 284 -1 309 -21z"/>
 <path d="M4300 1421 c0 -435 1 -451 19 -461 27 -14 686 -13 787 1 92 13 120 25 162 73 37 42 51 86 59 181 8 104 -12 206 -51 258 -33 44 -85 76 -123 77 -13 0 -23 3 -23 8 0 4 52 71 116 150 63 78 112 147 109 152 -3 6 -51 10 -108 10 l-102 0 -110 -145 -109 -145 -218 0 -217 0 -3 143 -3 142 -92 3 -93 3 0 -450z m751 -1 c58 -16 73 -41 78 -128 4 -95 -14 -137 -68 -153 -22 -6 -138 -9 -301 -7 l-265 3 -3 134 c-1 74 0 141 2 148 4 10 61 13 263 13 142 0 274 -5 294 -10z"/>
 <path d="M5720 1861 c-71 -10 -130 -41 -169 -88 -55 -67 -61 -102 -61 -358 0 -259 6 -294 65 -362 68 -80 178 -103 498 -103 305 0 422 20 490 85 67 64 87 151 87 375 0 287 -36 379 -171 432 -51 20 -73 22 -369 24 -173 1 -340 -1 -370 -5z m651 -188 c49 -29 59 -74 59 -258 0 -283 6 -279 -365 -283 -381 -4 -378 -6 -384 229 -5 207 2 254 44 296 l33 33 292 0 c257 0 295 -2 321 -17z"/>
 <path d="M7025 1860 c-105 -14 -168 -58 -207 -144 -22 -49 -23 -61 -23 -301 l0 -250 30 -60 c34 -69 94 -116 172 -135 71 -18 748 -26 768 -10 11 9 15 33 15 86 0 62 -3 75 -19 84 -13 6 -138 10 -339 10 -176 0 -334 3 -351 6 -20 4 -42 20 -59 42 l-27 35 0 186 c0 296 -23 281 443 281 301 0 341 2 346 16 11 28 6 140 -6 152 -9 9 -99 12 -352 11 -188 -1 -363 -5 -391 -9z"/>
 <path d="M8150 1860 c-74 -10 -102 -22 -149 -65 -65 -59 -83 -121 -89 -302 l-4 -153 486 0 486 0 0 70 0 70 -387 2 -388 3 4 55 c1 30 9 69 16 87 26 61 39 63 400 63 206 0 333 4 346 10 16 9 19 22 19 75 0 104 34 95 -349 94 -185 -1 -361 -5 -391 -9z"/>
 <path d="M9265 1860 c-106 -16 -161 -54 -201 -137 -26 -54 -28 -69 -32 -221 l-5 -162 484 2 484 3 3 44 c2 25 1 55 -3 68 l-5 23 -387 0 -386 0 6 66 c5 71 25 109 68 131 18 9 112 13 352 13 207 0 335 4 348 10 16 9 19 22 19 78 0 40 -5 73 -12 80 -14 14 -645 15 -733 2z"/>
 <path d="M10177 1863 c-4 -3 -7 -206 -7 -449 0 -428 1 -444 19 -454 26 -13 610 -13 719 0 260 33 332 144 320 500 -6 161 -25 235 -76 300 -40 49 -124 90 -208 100 -80 11 -757 13 -767 3z m773 -191 c22 -12 44 -35 58 -62 20 -40 22 -58 22 -191 0 -279 -14 -289 -412 -289 l-248 0 0 280 0 280 273 0 c244 0 276 -2 307 -18z"/>
 <path d="M7954 1093 c21 -41 65 -79 117 -102 69 -31 195 -41 510 -41 234 0 289 3 298 14 7 9 11 41 9 83 l-3 68 -473 3 -473 2 15 -27z"/>
 <path d="M9060 1112 c0 -5 13 -27 29 -49 42 -58 113 -89 233 -102 142 -16 649 -15 672 2 14 10 16 25 14 82 l-3 70 -472 3 c-260 1 -473 -2 -473 -6z"/>
 </g>

</svg>