<!DOCTYPE svg PUBLIC "-//W3C//DTD SVG 20010904//EN" "http://www.w3.org/TR/2001/REC-SVG-20010904/DTD/svg10.dtd">
<svg version="1.0" xmlns="http://www.w3.org/2000/svg" width="264px" height="280px" viewBox="0 0 2640 2800" preserveAspectRatio="xMidYMid meet">
<g id="layer101" fill="#03070d" stroke="none">
 <path d="M450 1415 l0 -1215 648 0 c720 0 729 1 852 66 123 64 224 185 272 322 22 65 23 76 23 437 l0 370 -36 75 c-83 174 -249 294 -674 485 -22 10 -91 42 -153 71 -62 30 -115 54 -117 54 -4 0 -233 108 -248 117 -4 2 -6 -237 -5 -532 l3 -535 118 -55 c65 -29 127 -57 137 -60 20 -6 20 0 20 318 0 178 3 326 6 330 3 3 21 -2 40 -10 l34 -17 0 -413 0 -414 104 -49 c102 -48 175 -80 182 -80 2 0 4 182 4 405 0 223 2 405 5 405 2 0 43 -19 91 -42 128 -63 124 -48 124 -424 0 -287 -1 -310 -20 -348 -22 -47 -67 -80 -137 -104 -41 -13 -114 -17 -475 -20 l-428 -3 -2 957 -3 958 -45 21 c-108 52 -179 84 -230 106 -30 12 -59 26 -64 31 -6 4 -14 8 -18 8 -4 0 -8 -547 -8 -1215z"/>
 </g>

</svg>