<?xml version="1.0" standalone="no"?>
<!DOCTYPE svg PUBLIC "-//W3C//DTD SVG 20010904//EN"
 "http://www.w3.org/TR/2001/REC-SVG-20010904/DTD/svg10.dtd">
<svg version="1.0" xmlns="http://www.w3.org/2000/svg"
 width="1500.000000pt" height="403.000000pt" viewBox="0 0 1500.000000 403.000000"
 preserveAspectRatio="xMidYMid meet">
<metadata>
Created by potrace 1.16, written by Peter Selinger 2001-2019
</metadata>
<g transform="translate(0.000000,403.000000) scale(0.100000,-0.100000)"
fill="#000000" stroke="none">
<path d="M3531 3291 c-8 -13 -11 -227 -11 -650 0 -613 1 -631 19 -641 11 -5
71 -10 135 -10 91 0 118 3 130 16 13 13 16 46 16 200 l0 184 403 0 c221 0 434
5 472 10 101 14 189 61 232 124 55 80 67 138 67 326 0 144 -2 174 -23 239 -19
61 -31 82 -74 125 -96 94 -64 91 -754 94 -590 3 -602 2 -612 -17z m1095 -266
c55 -23 77 -84 72 -195 -4 -94 -18 -126 -65 -157 -25 -16 -64 -18 -420 -21
l-393 -3 0 196 0 195 385 0 c316 0 392 -3 421 -15z"/>
<path d="M5181 3291 c-8 -13 -11 -226 -11 -650 0 -613 1 -631 19 -641 11 -5
71 -10 135 -10 91 0 118 3 130 16 13 13 16 46 16 210 l0 194 295 0 294 0 156
-205 c98 -128 164 -207 178 -210 12 -3 83 -4 157 -3 l135 3 3 25 c2 19 -33 68
-153 217 -85 105 -155 194 -155 197 0 3 6 6 13 6 27 0 134 59 164 91 18 19 41
56 53 82 45 101 49 354 8 486 -16 51 -30 75 -71 115 -96 94 -64 90 -754 94
-591 3 -602 3 -612 -17z m1097 -264 c49 -27 72 -84 72 -182 0 -98 -23 -155
-72 -182 -30 -16 -69 -18 -420 -21 l-388 -4 0 200 c0 109 3 202 7 206 4 4 179
6 388 4 345 -3 383 -5 413 -21z"/>
<path d="M7171 3294 c-181 -39 -280 -146 -311 -336 -15 -94 -12 -537 4 -629
32 -179 118 -272 293 -317 60 -15 123 -17 513 -17 389 0 453 2 513 17 161 42
239 116 284 271 11 37 17 124 20 308 8 374 -12 487 -103 588 -53 59 -122 95
-219 116 -98 21 -898 20 -994 -1z m891 -264 c59 -17 96 -54 114 -116 12 -44
15 -98 12 -286 -4 -276 -9 -295 -94 -338 l-49 -25 -380 0 -380 0 -45 25 c-79
44 -84 66 -88 342 -2 151 1 251 8 277 15 55 61 107 108 119 51 14 746 15 794
2z"/>
<path d="M9019 3295 c-122 -24 -214 -85 -262 -173 -52 -96 -59 -154 -55 -501
4 -295 5 -320 26 -374 56 -152 162 -224 361 -247 111 -13 991 -13 1011 0 12 7
15 33 15 129 0 66 -4 123 -8 128 -5 4 -228 10 -495 13 -461 5 -489 6 -527 25
-29 15 -47 33 -65 70 -24 49 -25 55 -25 275 0 124 4 242 8 263 10 49 59 103
105 118 26 9 181 14 512 16 425 4 476 6 488 20 15 21 17 206 2 234 -10 18 -26
19 -518 18 -376 -1 -524 -4 -573 -14z"/>
<path d="M13502 3298 c-9 -9 -12 -166 -12 -645 l0 -633 24 -16 c22 -14 81 -15
553 -11 451 3 537 6 591 20 185 49 286 148 327 319 17 73 21 532 6 614 -37
194 -152 307 -353 348 -65 13 -163 16 -601 16 -393 0 -526 -3 -535 -12z m1059
-274 c64 -19 113 -66 131 -127 9 -28 13 -109 13 -247 0 -232 -9 -275 -71 -329
-59 -53 -86 -56 -479 -56 l-360 0 -3 388 -2 387 358 0 c300 0 367 -3 413 -16z"/>
</g>
</svg>
